<svg width="214" height="214" viewBox="0 0 214 214" fill="none" xmlns="http://www.w3.org/2000/svg">
<path d="M138.028 41.7353C138.028 41.7353 115.138 70.7289 78.5145 53.4344C41.8909 36.1399 5.26716 82.9369 36.8042 111.422C68.3413 139.907 37.4799 155.559 58.905 173.017C83.2559 192.858 104.456 152.624 123.785 161.78C166.446 181.987 198.05 173.987 190.929 150.589C178.428 109.516 162.444 106.844 174.652 85.4802C186.859 64.1163 159.917 19.6957 138.028 41.7353Z" fill="#DEE9FF"/>
<path d="M125.566 121.924L123.758 131.633L115.144 177.784L99.6289 174.887L109.577 121.574L110.05 119.034L125.566 121.924Z" fill="#699CFF"/>
<path d="M163.777 98.7064L158.427 127.389C158.411 127.473 158.379 127.553 158.333 127.625C158.286 127.696 158.226 127.758 158.155 127.806C158.085 127.855 158.005 127.889 157.922 127.906C157.838 127.924 157.751 127.925 157.667 127.909L82.5039 113.891L91.3507 66.4575L148.427 77.103C158.772 79.032 165.643 88.7022 163.777 98.7064Z" fill="#A2BDFF"/>
<path d="M107.405 89.0808L102.097 117.541L62.6429 110.182L67.951 81.7223C69.9054 71.2438 80.322 64.3964 91.2166 66.4283C102.111 68.4602 109.359 78.6021 107.405 89.0808Z" fill="#699CFF"/>
<path d="M125.772 102.385C122.865 101.843 120.947 99.0171 121.494 96.0827C122.042 93.1483 124.849 91.2035 127.757 91.7461C128.683 91.9202 129.548 92.3366 130.261 92.9531C130.975 93.5696 131.512 94.364 131.819 95.2557L168.545 102.105L167.553 107.425L130.827 100.575C130.22 101.297 129.432 101.844 128.544 102.162C127.656 102.48 126.7 102.557 125.772 102.385Z" fill="#418DF9"/>
<path d="M106.096 89.6038L100.924 117.332L63.7573 110.4L68.9294 82.6717C70.8335 72.4627 80.6975 65.7379 90.9607 67.6522C101.224 69.5664 108 79.3947 106.096 89.6038Z" fill="#418DF9"/>
<path d="M126.814 99.6975C128.308 99.6975 129.519 98.4862 129.519 96.9918C129.519 95.4975 128.308 94.2861 126.814 94.2861C125.319 94.2861 124.108 95.4975 124.108 96.9918C124.108 98.4862 125.319 99.6975 126.814 99.6975Z" fill="white"/>
<path d="M168.969 102.087L165.725 119.48C165.711 119.555 165.668 119.621 165.605 119.665C165.542 119.708 165.465 119.724 165.39 119.71L156.862 118.119C156.848 118.117 156.834 118.108 156.826 118.096C156.817 118.083 156.814 118.068 156.817 118.053L160.103 100.433C160.106 100.418 160.115 100.405 160.127 100.397C160.139 100.388 160.155 100.385 160.17 100.388L168.924 102.02C168.939 102.023 168.952 102.032 168.96 102.044C168.969 102.056 168.972 102.072 168.969 102.087Z" fill="#699CFF"/>
<path d="M76.0568 100.45C76.4159 103.092 79.3147 106.231 79.3147 106.231C74.8975 106.545 72.5053 104.047 71.476 102.529C70.2034 102.896 68.8954 103.128 67.5739 103.221C58.5056 103.864 50.6991 97.9435 50.1353 89.9908C49.5715 82.0381 56.465 75.0756 65.5333 74.433C74.6017 73.7904 82.4076 79.7104 82.9713 87.6632C83.338 92.8361 80.5467 97.5909 76.0568 100.45Z" fill="white"/>
<path d="M102.135 117.558C101.724 118.598 94.2144 149.563 69.9128 145.03C43.2645 140.519 62.5398 110.173 62.5398 110.173L102.135 117.558Z" fill="#A2BDFF"/>
<path d="M66.5531 91.5553C67.7983 91.5553 68.8078 90.5458 68.8078 89.3006C68.8078 88.0554 67.7983 87.0459 66.5531 87.0459C65.3078 87.0459 64.2983 88.0554 64.2983 89.3006C64.2983 90.5458 65.3078 91.5553 66.5531 91.5553Z" fill="#699CFF"/>
<path d="M56.4592 90.5722C57.712 90.5722 58.7275 89.5567 58.7275 88.3039C58.7275 87.0512 57.712 86.0356 56.4592 86.0356C55.2065 86.0356 54.1909 87.0512 54.1909 88.3039C54.1909 89.5567 55.2065 90.5722 56.4592 90.5722Z" fill="#699CFF"/>
<path d="M76.5504 92.5161C77.8032 92.5161 78.8187 91.5005 78.8187 90.2478C78.8187 88.995 77.8032 87.9795 76.5504 87.9795C75.2977 87.9795 74.2821 88.995 74.2821 90.2478C74.2821 91.5005 75.2977 92.5161 76.5504 92.5161Z" fill="#699CFF"/>
<path d="M125.566 121.924L123.758 131.633L109.577 121.574L110.05 119.034L125.566 121.924Z" fill="#418DF9"/>
</svg>
