<svg width="320" height="210" viewBox="0 0 320 210" fill="none" xmlns="http://www.w3.org/2000/svg">
<path d="M255.961 56.1744C257.962 51.7609 267.989 46.4097 264.438 44.9218C259.874 42.9964 252.823 44.2592 244.771 45.8595C235.419 32.5565 226.754 21.329 211.976 38.4954C206.462 33.8818 194.472 31.0937 185.72 34.0819C181.457 36.5824 191.747 41.471 191.034 44.1842C191.034 45.797 190.296 48.085 185.458 48.3101C160.852 53.4112 179.506 64.5638 186.108 70.8902C205.337 48.2601 196.023 58.925 210.526 67.702C212.001 67.4644 218.09 60.5754 220.603 60.2753C223.954 59.8752 226.855 73.3783 229.168 74.1284C238.295 64.8013 241.67 72.278 245.184 86.1937C250.547 85.2684 251.285 82.5803 252.885 81.3551C257.724 89.807 250.26 96.8836 247.884 99.3466C255.011 99.7967 261.537 91.6574 259.962 85.7936C264.963 84.3307 271.877 86.4312 272.352 81.9427C272.715 77.6667 268.827 67.2269 255.961 56.1744Z" fill="#EF564B" fill-opacity="0.2"/>
<path d="M141.373 101.984C136.957 101.004 132.464 100.419 127.945 100.234C123.169 122.351 75.2453 122.364 67.8312 111.711C62.913 115.338 59.5637 120.704 58.4666 126.715C71.9946 128.99 93.4745 154.346 90.6363 166.724C158.064 162.973 120.856 146.582 135.509 128.478C139.22 129.841 143.033 130.912 146.912 131.678C140.185 123.189 141.373 101.984 141.373 101.984Z" fill="#EF564B" fill-opacity="0.2"/>
<path d="M205.475 136.568C203.912 134.855 204.775 128.591 201.624 127.816C198.474 127.041 195.911 132.542 193.197 133.355C190.484 134.168 184.445 132.667 183.683 135.556C182.795 138.669 186.896 140.394 186.833 143.445C186.771 146.908 182.082 149.334 184.095 152.384C185.721 154.885 190.972 152.459 194.098 153.41C197.736 154.535 200.924 159.949 203.8 159.073C206.675 158.198 204.575 152.359 206.3 149.246C208.026 146.133 213.602 144.983 213.364 141.894C213.127 138.806 207.038 138.281 205.475 136.568Z" fill="#EF564B" fill-opacity="0.2"/>
<path d="M204.225 77.6669C201.599 66.4144 183.795 72.8158 188.784 83.1432C190.034 85.7688 195.035 83.7808 196.886 86.2564C201.462 88.5194 205.188 81.8554 204.225 77.6669ZM191.06 82.0929C190.718 81.3431 190.545 80.5272 190.554 79.7031C190.563 78.879 190.753 78.067 191.111 77.3247C191.469 76.5825 191.986 75.9281 192.625 75.4081C193.265 74.8882 194.011 74.5153 194.81 74.3162C195.17 77.4401 195.948 80.5015 197.123 83.4182C195.266 82.4167 193.165 81.9574 191.06 82.0929Z" fill="#1C1F28"/>
<path d="M107.44 109.887C107.128 109.779 106.786 109.798 106.489 109.941C106.191 110.084 105.963 110.339 105.852 110.65C104.864 113.675 99.9633 113.85 98.2379 111.475C98.0371 111.211 97.74 111.039 97.4118 110.994C97.0837 110.949 96.7512 111.037 96.4875 111.237C94.6746 113.813 99.7257 115.726 101.901 115.651C104.614 116.001 110.228 112.362 107.44 109.887Z" fill="#1C1F28"/>
<path d="M219.003 96.7834C217.328 96.1458 201.261 87.9189 200.086 94.6079C199.774 99.2715 201.236 102.81 205.612 104.235C212.526 107.036 218.665 106.736 219.603 97.9837C219.627 97.7473 219.584 97.5088 219.478 97.2962C219.371 97.0836 219.207 96.9057 219.003 96.7834ZM214.877 102.822C213.389 104.073 204.087 102.685 202.937 98.7338C205.949 99.8064 209.027 100.683 212.151 101.359C216.04 99.6716 210.426 98.1337 208.851 97.9337C205.587 96.8709 202.149 96.7709 202.687 94.5079C207.425 94.6454 214.027 97.096 216.99 98.5338C216.615 100.809 215.94 102.172 214.877 102.822Z" fill="#1C1F28"/>
<path d="M205.913 86.4811C206.013 89.0567 213.777 92.395 214.828 89.5068C214.828 86.3686 204.25 89.5068 209.514 81.3425C210.076 80.8844 210.76 80.5993 211.481 80.5216C212.202 80.444 212.93 80.5771 213.577 80.9049C220.816 78.8294 203.725 73.7532 205.913 86.4811Z" fill="#1C1F28"/>
<path d="M228.905 79.7306C222.366 79.0304 218.091 86.8322 221.154 92.2334C221.383 92.715 221.76 93.1106 222.23 93.3626C222.7 93.6145 223.239 93.7095 223.767 93.6337C226.567 93.1461 229.231 94.6089 232.256 95.4216C240.508 93.1586 237.57 79.368 228.905 79.7306ZM223.417 91.0831C222.954 90.2941 222.68 89.4093 222.615 88.4971C222.55 87.585 222.697 86.6702 223.042 85.8237C223.388 84.9772 223.924 84.2218 224.61 83.6161C225.295 83.0104 226.11 82.5707 226.993 82.3312C227.627 85.6131 228.63 88.8131 229.981 91.8708C227.871 91.1568 225.636 90.8885 223.417 91.0831Z" fill="#1C1F28"/>
<path d="M257.862 55.2867C277.041 40.1583 264.826 34.6445 243.134 38.3453C233.944 19.9787 224.567 15.4152 211.726 35.9073C201.099 23.4045 162.153 26.5927 185.471 43.2339C176.644 43.2339 167.016 49.1103 165.954 56.687C165.766 61.3881 173.455 64.4763 178.294 67.4519C176.281 71.4778 177.994 79.1546 181.52 81.8927C180.817 84.8348 180.527 87.8602 180.657 90.8822C177.583 91.172 174.588 92.0193 171.817 93.3828C171.055 84.5433 175.018 73.8784 163.716 66.9518C161.865 66.0141 153.126 63.0509 147.399 66.6893C141.148 70.1275 144.336 79.6547 140.748 78.2419C132.759 77.3167 135.422 85.7436 139.898 91.1573C140.835 92.2825 140.735 94.158 140.623 96.3085C137.259 95.1152 133.736 94.4284 130.171 94.2705C130.16 90.5852 129.403 86.9401 127.945 83.5556C131.121 78.2294 128.695 67.652 122.294 65.6265C118.218 56.2869 105.315 53.7238 98.0758 56.4119C94.2124 54.2114 89.9239 53.0862 85.5729 54.3365C86.7245 53.0095 88.1663 51.9656 89.7864 51.2858C100.926 46.2846 97.3631 36.0073 87.2858 36.695C90.274 27.6929 77.2836 26.5677 72.2824 32.2565C67.5814 18.8784 47.6018 33.3067 59.1795 43.384C45.864 44.6718 39.0249 67.1144 56.5289 63.9136C55.6037 68.9148 60.2797 72.0905 65.0808 70.4526C64.7009 71.548 64.4124 72.6729 64.2181 73.8159C60.1047 75.8288 58.3293 79.9298 59.3045 84.9934C55.2411 89.8945 57.4541 98.0213 61.8051 102.672C63.2304 104.023 62.7178 106.423 63.4679 108.124C47.4143 121.314 33.9863 133.479 45.964 150.758C50.0899 157.172 58.0542 162.999 60.9674 168.062C48.8896 177.477 83.1474 191.03 91.1492 168.35C107.028 173.426 126.47 167.262 140.26 160.573C150.563 153.171 134.284 140.043 136.747 130.166C146.937 133.442 157.877 133.479 168.692 132.204C152.738 162.636 191.872 176.627 220.754 172.976C221.829 189.705 249.585 192.768 255.936 177.477C257.574 173.326 264.889 176.339 266.489 171.575C268.989 167.262 262.6 163.836 264.376 160.235C273.841 140.306 264.801 120.326 248.685 103.398C248.897 102.579 249.023 101.741 249.06 100.897C255.749 100.422 263.451 96.0084 266.239 88.8193C270.277 90.2821 277.591 95.6458 278.592 88.2066C279.267 74.7911 271.077 61.8632 257.862 55.2867ZM180.494 68.7522C181.945 69.6399 183.495 70.6402 185.133 71.7779C183.997 74.1409 183.052 76.5909 182.307 79.1046C181.226 77.6363 180.5 75.9375 180.185 74.1413C179.87 72.3452 179.976 70.5006 180.494 68.7522ZM123.356 68.9773C126.345 71.4778 127.507 76.7915 126.52 80.3674C125.286 77.9838 123.874 75.6975 122.294 73.5283C122.798 72.8964 123.155 72.16 123.339 71.3728C123.523 70.5855 123.529 69.7672 123.356 68.9773ZM120.056 66.6267C122.981 73.9409 117.98 74.0409 110.829 70.3776C122.006 72.2655 115.217 59.6502 103.815 61.013C102.881 59.9936 101.865 59.0527 100.776 58.1998C107.178 56.912 116.918 59.4376 120.056 66.6267ZM88.9737 56.2619C101.652 55.2867 116.117 79.1296 93.8998 73.9159C113.604 72.1405 90.5741 52.411 82.1972 62.3008C81.4966 62.0433 80.7778 61.8386 80.0467 61.6881C82.2847 58.1748 85.3104 56.3369 88.9737 56.2619ZM77.5961 67.7395C74.1203 67.3144 69.9319 69.5899 68.6941 72.5781C68.1109 72.6257 67.5308 72.705 66.9562 72.8156C72.9076 49.6979 105.102 78.5669 81.3345 79.8672C89.5613 78.2919 88.7862 69.815 77.5961 67.7395ZM86.9858 39.258C95.0376 38.1828 96.6129 45.3219 89.3738 48.6602C92.9496 36.2949 76.7709 45.1094 78.2463 54.449C77.6053 53.7423 76.8588 53.1392 76.0333 52.6611C76.1583 47.66 80.1967 40.1583 86.9858 39.258ZM72.2824 35.8698C79.4966 26.4051 92.9371 33.2192 79.259 40.4583C86.0981 28.6682 68.3565 35.4572 71.7573 46.7848C71.1 46.2329 70.402 45.7314 69.6693 45.2844C69.4025 43.6195 69.4978 41.9167 69.9488 40.292C70.3997 38.6673 71.1957 37.159 72.2824 35.8698ZM58.5918 34.3444C60.6173 28.6431 70.407 27.1303 70.1319 34.582C69.6705 35.1498 69.2525 35.7517 68.8817 36.3824C66.2436 25.1299 54.9285 36.97 65.2683 43.509C60.4422 43.2465 56.979 37.5202 58.5918 34.3444ZM57.7791 60.3128C54.1783 62.8134 51.1902 62.4258 49.0897 59.6127C45.3388 50.7481 61.2049 40.6209 69.6818 48.3601C60.3547 43.2339 47.4518 59.3751 58.6418 58.9875C58.3293 59.4251 58.0292 59.8627 57.7791 60.3128ZM59.9171 67.5645C55.2536 59.4001 72.67 48.3476 77.5586 57.6622C71.1072 52.6611 55.5661 66.1266 67.9189 65.564C65.7434 68.9148 60.1547 68.4647 59.9171 67.5645ZM65.1933 76.0664C82.1096 70.14 78.4338 91.2573 69.5943 86.0686C74.8955 87.0689 78.1463 78.2044 70.5695 77.5167C64.9933 77.0166 63.3429 81.5551 62.8928 83.4681C62.4792 83.3959 62.0562 83.3959 61.6425 83.4681C61.2299 80.0923 62.4677 77.4792 65.1933 76.0664ZM60.0046 88.8068C63.2304 79.1921 74.3329 99.4217 79.4716 82.3178C80.1384 82.3678 80.7635 82.3928 81.347 82.3928C79.209 83.1055 78.4213 86.5687 81.347 85.4685C85.3104 82.2053 89.3988 81.5176 93.5122 83.4431C93.6616 83.5124 93.8232 83.5515 93.9877 83.5583C94.1522 83.565 94.3164 83.5391 94.471 83.4822C94.6255 83.4253 94.7672 83.3384 94.8881 83.2266C95.0089 83.1147 95.1064 82.9801 95.1751 82.8304C95.7627 80.3298 91.5618 80.3298 90.0239 79.9173C91.168 78.9695 91.9243 77.6348 92.1494 76.1664C98.4008 78.0668 106.915 77.8668 107.915 71.6779C109.23 72.4833 110.6 73.1936 112.016 73.8034C109.803 73.8909 101.339 78.4669 105.577 80.3924C113.317 72.9532 115.692 78.1669 117.805 75.2412C118.574 75.2715 119.343 75.1744 120.081 74.9536C152.301 117.476 73.3077 130.479 65.3559 105.173C63.968 99.3341 57.8542 95.1707 60.0046 88.8068ZM85.8855 172.401C85.5104 170.775 85.6104 167.237 83.2974 167.75C83.1453 167.813 83.0072 167.905 82.8909 168.021C82.7746 168.138 82.6824 168.276 82.6197 168.428C82.557 168.581 82.5249 168.744 82.5254 168.908C82.5258 169.073 82.5587 169.236 82.6223 169.387C83.2821 171.095 83.5677 172.924 83.46 174.751C81.4784 176.314 79.1711 177.412 76.7084 177.964C76.7084 176.402 77.9587 171.851 75.4581 171.425C75.2927 171.436 75.1311 171.48 74.9827 171.554C74.8344 171.629 74.7022 171.731 74.594 171.857C74.4858 171.983 74.4037 172.129 74.3524 172.286C74.3011 172.444 74.2817 172.61 74.2954 172.776C74.4579 174.876 74.5579 177.164 73.9203 178.365C69.7944 179.377 57.7541 174.439 61.655 170.45C65.8435 167.462 61.8801 165.012 57.5291 160.173C50.9026 153.784 39.8626 142.044 44.9262 132.117C48.3395 127.115 54.2533 125.678 60.7548 128.278C75.4456 136.305 97.5381 157.897 85.8855 172.401ZM136.81 127.528C137.21 121.877 135.322 117.101 130.646 112C130.42 111.756 130.107 111.612 129.775 111.599C129.444 111.586 129.12 111.705 128.876 111.931C128.633 112.156 128.489 112.469 128.476 112.801C128.463 113.133 128.582 113.456 128.808 113.7C134.784 119.739 134.584 125.39 134.134 132.454C134.134 140.118 139.61 146.582 141.06 153.709C143.023 163.386 98.8259 171 91.6868 165.762C92.537 158.01 89.1237 151.771 82.6848 143.532C84.1351 140.931 91.8994 135.917 90.6241 133.042C87.5734 132.179 83.5975 139.893 81.0469 141.606C74.6955 134.317 60.7298 120.251 48.9897 125.565C53.3558 119.727 58.598 114.599 64.5307 110.362C79.6966 127.528 125.72 123.102 130.02 96.721C133.575 96.8594 137.084 97.573 140.41 98.834C139.785 104.848 138.522 121.827 143.899 129.341C141.508 128.848 139.143 128.243 136.81 127.528ZM153.063 130.404C135.184 131.229 146.049 96.8461 142.298 90.1696C139.798 86.5688 136.86 82.3303 138.547 80.7549C140.185 80.1048 142.948 81.9177 144.386 79.5047C145.937 75.6038 144.736 69.2273 151.025 67.777C151.738 69.2773 149.612 75.0161 152.175 75.9914C154.989 75.1662 153.113 68.9148 153.551 67.4019C155.44 67.3367 157.328 67.5302 159.165 67.977C159.396 70.2592 159.396 72.5589 159.165 74.8411C159.149 75.0145 159.17 75.1893 159.225 75.3542C159.281 75.5191 159.371 75.6706 159.488 75.7989C159.606 75.9272 159.749 76.0295 159.909 76.0992C160.068 76.169 160.241 76.2046 160.415 76.2039C162.915 75.4412 161.515 70.6902 161.778 68.7022C170.167 72.0905 169.479 81.8552 169.354 87.4565C169.142 101.897 171.355 131.529 153.051 130.404H153.063ZM262.025 159.16C259.175 162.798 265.776 167.675 264.176 170.413C263.551 171.726 261.463 172.551 258.45 172.663C251.448 173.713 253.911 183.316 242.396 184.466C242.352 181.608 242.582 178.753 243.084 175.939C240.495 170.15 239.57 181.74 239.908 184.691C236.997 184.787 234.099 184.281 231.393 183.203C231.046 180.043 231.525 176.846 232.781 173.926C232.853 173.778 232.895 173.616 232.905 173.451C232.914 173.287 232.891 173.122 232.836 172.966C232.782 172.81 232.697 172.667 232.587 172.544C232.476 172.421 232.343 172.322 232.194 172.251C228.655 172.076 228.98 179.977 228.78 181.89C216.378 173.776 227.53 157.235 232.694 144.119C239.17 137.18 251.798 132.479 259.8 134.042C271.427 136.13 263.363 154.634 262.013 159.185L262.025 159.16ZM264.451 133.192C254.749 128.191 240.495 133.642 231.869 141.431C230.756 139.906 224.854 129.316 224.904 135.655C226.955 138.668 228.168 140.243 230.231 143.532C226.392 151.984 221.479 162.286 220.779 170.363C198.036 173.501 173.268 164.649 168.267 151.521C165.541 144.207 170.167 130.866 179.519 119.089C179.622 118.96 179.699 118.812 179.745 118.654C179.791 118.495 179.805 118.329 179.786 118.166C179.767 118.002 179.717 117.843 179.636 117.699C179.556 117.555 179.449 117.428 179.319 117.326C175.681 116.838 172.143 126.303 169.98 129.291C167.605 129.822 165.185 130.119 162.753 130.179C172.33 123.065 171.08 107.486 171.805 96.1334C174.618 94.5761 177.728 93.6303 180.932 93.3578C181.87 100.259 186.808 103.51 192.11 106.948C196.323 116.726 198.774 123.04 204.787 123.465C211.439 122.602 217.29 117.513 225.43 114.625C233.806 113.725 242.158 111.937 247.51 105.873C255.936 115.175 261.625 124.302 264.438 133.217L264.451 133.192ZM195.685 108.861C202.977 112.412 210.925 114.413 219.028 114.738C205.663 121.427 202.312 125.803 195.623 108.924L195.685 108.861ZM248.397 95.6458C244.997 98.9966 248.147 104.91 242.208 107.198C225.517 117.976 179.582 111.599 183.445 85.631C184.695 76.2539 190.647 63.6636 199.786 58.7625C202.437 62.0882 204.787 66.2642 208.263 68.3896C208.963 68.725 209.742 68.8604 210.515 68.781C211.287 68.7016 212.022 68.4104 212.639 67.9395C214.202 66.9268 219.753 60.938 221.179 61.6881C222.967 65.564 224.354 69.99 226.692 73.5158C225.342 73.5158 221.179 71.9404 220.716 74.3785C220.716 74.7101 220.848 75.0281 221.082 75.2626C221.317 75.4971 221.635 75.6288 221.966 75.6288C227.067 75.5413 229.18 76.8791 232.281 78.0668C235.207 77.2666 232.344 75.0036 230.668 74.6911C232.719 73.7159 234.282 71.7404 236.082 70.4901C243.671 74.9161 240.32 97.0461 252.586 82.9929C253.185 85.2907 253.102 87.7131 252.347 89.9644C251.592 92.2157 250.198 94.1986 248.335 95.6708L248.397 95.6458ZM249.435 98.2464C252.848 95.0082 255.361 91.3823 255.474 86.7063C258.315 86.7333 261.138 87.154 263.863 87.9566C261.425 93.9204 255.061 97.6713 249.372 98.2714L249.435 98.2464ZM276.079 87.9941C275.303 92.2825 268.714 86.0436 265.926 85.9811C262.538 84.835 258.988 84.2398 255.411 84.2182C253.936 74.316 247.097 87.1439 245.609 84.7058C244.896 83.0304 241.021 64.5513 234.119 68.7772C232.594 69.7149 230.368 73.1532 228.805 72.1655C220.391 56.4119 225.242 55.5867 209.676 66.4142C205.763 64.4638 204.2 58.9125 200.599 56.4119C194.135 56.937 189.684 64.3512 186.308 69.5524C180.544 63.8761 161.69 60.8004 171.492 51.5608C174.643 48.5977 179.957 45.4344 185.796 45.772C186.311 45.8662 186.843 45.7962 187.316 45.5718C187.789 45.3475 188.18 44.9802 188.434 44.5217C189.021 40.1708 180.932 38.0328 180.269 34.2819C186.308 27.8305 202.424 30.156 210.414 38.1828C209.714 40.4583 206.113 44.2967 208.351 46.1971C208.507 46.2501 208.672 46.2717 208.836 46.2607C209 46.2498 209.161 46.2065 209.308 46.1333C209.456 46.0601 209.588 45.9585 209.696 45.8342C209.804 45.71 209.886 45.5657 209.939 45.4094C214.74 33.6318 224.704 19.8412 231.568 26.5302C237.332 31.4563 244.071 43.1714 244.671 52.0985C244.671 52.4301 244.803 52.7481 245.038 52.9825C245.272 53.217 245.59 53.3487 245.922 53.3487C249.21 51.6984 245.184 44.1842 244.221 40.8459C256.499 38.933 264.513 39.8457 265.239 43.3465C265.176 46.2471 258.037 50.9982 255.849 53.9364C255.621 54.2104 255.458 54.5324 255.372 54.8783C255.286 55.2242 255.28 55.585 255.353 55.9337C255.427 56.2825 255.578 56.6101 255.796 56.8921C256.014 57.1741 256.293 57.4032 256.612 57.5622C271.753 64.9514 276.566 78.1544 276.079 87.9941Z" fill="#1C1F28"/>
<path d="M196.31 67.9397C202.562 66.7645 203.474 71.8406 205.925 70.6779C207.175 66.7145 200.049 65.0891 196.123 65.4517C195.808 65.4963 195.523 65.6588 195.324 65.9061C195.125 66.1534 195.028 66.4671 195.052 66.7835C195.076 67.0999 195.219 67.3954 195.453 67.6101C195.686 67.8248 195.993 67.9427 196.31 67.9397Z" fill="#1C1F28"/>
<path d="M86.6863 101.484C98.1764 101.409 96.8261 84.7176 85.7861 86.3305C76.1714 87.4182 77.6092 101.534 86.6863 101.484ZM87.9366 88.7685C95.4383 90.1063 92.2625 101.146 84.8734 98.6458C86.6498 95.6369 87.6988 92.2546 87.9366 88.7685Z" fill="#1C1F28"/>
<path d="M115.292 94.4217C126.544 94.4217 125.569 78.093 114.729 79.6934C105.827 80.8187 106.39 94.4717 115.292 94.4217ZM116.542 82.0814C123.769 82.9941 121.318 93.5715 113.967 91.7211C115.397 88.6901 116.261 85.4232 116.517 82.0814H116.542Z" fill="#1C1F28"/>
<path d="M98.1758 98.76C97.0631 99.9352 98.9385 101.661 100.026 100.448C100.828 99.5845 101.932 99.0637 103.108 98.9939C104.284 98.924 105.442 99.3104 106.34 100.073C106.462 100.184 106.605 100.271 106.76 100.327C106.916 100.383 107.081 100.408 107.246 100.399C107.411 100.391 107.573 100.351 107.722 100.279C107.872 100.208 108.005 100.108 108.116 99.9852C109.116 95.2467 99.7887 95.9969 98.1758 98.76Z" fill="#1C1F28"/>
<path d="M98.3631 94.4208C100.614 94.1583 98.8007 91.3701 100.251 90.0448C102.089 88.0444 105.69 90.1323 104.615 92.6204C104.533 92.9421 104.583 93.2828 104.753 93.5677C104.923 93.8526 105.199 94.0583 105.521 94.1395C105.843 94.2208 106.183 94.1709 106.468 94.0009C106.753 93.8309 106.959 93.5547 107.04 93.233C108.803 87.9944 101.664 84.4811 98.2881 88.457C97.2878 89.7448 95.8625 93.9207 98.3631 94.4208Z" fill="#1C1F28"/>
<path d="M101.877 110.374C106.241 110.487 105.903 105.948 107.616 103.41C108.566 102.772 109.291 102.01 108.729 101.422C105.628 101.285 101.227 103.21 97.0261 102.047C95.7758 101.822 95.3257 102.435 95.3632 103.298C95.5133 106.223 98.3639 110.374 101.877 110.374ZM99.3766 103.66C100.289 103.66 101.877 103.66 103.678 103.51C106.391 103.748 102.99 107.486 101.49 106.948C99.3391 107.036 97.8013 104.335 99.3391 103.66H99.3766Z" fill="#1C1F28"/>
</svg>
