<svg width="30" height="34" viewBox="0 0 30 34" fill="none" xmlns="http://www.w3.org/2000/svg">
<path fill-rule="evenodd" clip-rule="evenodd" d="M1.95333 2.28665C-2.6491e-07 4.23831 0 7.38165 0 13.6666V20.3333C0 26.6183 -2.6491e-07 29.7616 1.95333 31.7133C3.905 33.6666 7.04833 33.6666 13.3333 33.6666H16.6667C22.9517 33.6666 26.095 33.6666 28.0467 31.7133C30 29.7616 30 26.6183 30 20.3333V13.6666C30 7.38165 30 4.23831 28.0467 2.28665C26.095 0.333313 22.9517 0.333313 16.6667 0.333313H13.3333C7.04833 0.333313 3.905 0.333313 1.95333 2.28665ZM8.33333 12.4166C8.00181 12.4166 7.68387 12.5483 7.44945 12.7828C7.21503 13.0172 7.08333 13.3351 7.08333 13.6666C7.08333 13.9982 7.21503 14.3161 7.44945 14.5505C7.68387 14.7849 8.00181 14.9166 8.33333 14.9166H21.6667C21.9982 14.9166 22.3161 14.7849 22.5506 14.5505C22.785 14.3161 22.9167 13.9982 22.9167 13.6666C22.9167 13.3351 22.785 13.0172 22.5506 12.7828C22.3161 12.5483 21.9982 12.4166 21.6667 12.4166H8.33333ZM8.33333 19.0833C8.00181 19.0833 7.68387 19.215 7.44945 19.4494C7.21503 19.6838 7.08333 20.0018 7.08333 20.3333C7.08333 20.6648 7.21503 20.9828 7.44945 21.2172C7.68387 21.4516 8.00181 21.5833 8.33333 21.5833H16.6667C16.9982 21.5833 17.3161 21.4516 17.5506 21.2172C17.785 20.9828 17.9167 20.6648 17.9167 20.3333C17.9167 20.0018 17.785 19.6838 17.5506 19.4494C17.3161 19.215 16.9982 19.0833 16.6667 19.0833H8.33333Z" fill="#69BE47"/>
</svg>
