<svg width="17" height="17" viewBox="0 0 17 17" fill="none" xmlns="http://www.w3.org/2000/svg">
<path d="M12.0417 1.4165V2.83317M8.50002 1.4165V2.83317M4.95835 1.4165V2.83317M5.66669 10.6248H8.50002M5.66669 7.08317H11.3334M2.47919 7.08317C2.47919 4.74567 2.47919 3.57692 3.20523 2.85088C3.93127 2.12484 5.10002 2.12484 7.43752 2.12484H9.56252C11.9 2.12484 13.0688 2.12484 13.7948 2.85088C14.5209 3.57692 14.5209 4.74567 14.5209 7.08317V10.6248C14.5209 12.9623 14.5209 14.1311 13.7948 14.8571C13.0688 15.5832 11.9 15.5832 9.56252 15.5832H7.43752C5.10002 15.5832 3.93127 15.5832 3.20523 14.8571C2.47919 14.1311 2.47919 12.9623 2.47919 10.6248V7.08317Z" stroke="#1C1F28" stroke-width="2" stroke-linecap="round" stroke-linejoin="round"/>
</svg>
