<svg width="21" height="21" viewBox="0 0 21 21" fill="none" xmlns="http://www.w3.org/2000/svg">
<path d="M5.86863 2.88119C5.70455 2.71715 5.48203 2.625 5.25001 2.625C5.01799 2.625 4.79547 2.71715 4.63139 2.88119L3.50001 4.01256L3.24364 3.75619C3.07861 3.5968 2.85758 3.5086 2.62816 3.5106C2.39874 3.51259 2.17928 3.60461 2.01704 3.76685C1.85481 3.92908 1.76279 4.14854 1.7608 4.37796C1.7588 4.60738 1.847 4.82841 2.00638 4.99344L2.88138 5.86844C3.04547 6.03247 3.26799 6.12463 3.50001 6.12463C3.73203 6.12463 3.95455 6.03247 4.11863 5.86844L5.86863 4.11844C6.03267 3.95435 6.12482 3.73183 6.12482 3.49981C6.12482 3.26779 6.03267 3.04527 5.86863 2.88119ZM18.3776 14.8687H8.75001L8.64764 14.8748C8.42618 14.9012 8.22313 15.0111 8.07999 15.1821C7.93685 15.3531 7.86441 15.5723 7.87748 15.795C7.89055 16.0176 7.98814 16.2268 8.15031 16.3799C8.31248 16.533 8.52699 16.6184 8.75001 16.6187H18.3776L18.48 16.6134C18.7031 16.589 18.9082 16.4797 19.053 16.3083C19.1978 16.1369 19.2712 15.9164 19.258 15.6924C19.2449 15.4684 19.1462 15.258 18.9824 15.1047C18.8185 14.9514 18.602 14.8669 18.3776 14.8687ZM18.3776 9.62481H8.75001L8.64764 9.63094C8.42618 9.65728 8.22313 9.76719 8.07999 9.93821C7.93685 10.1092 7.86441 10.3285 7.87748 10.5511C7.89055 10.7737 7.98814 10.983 8.15031 11.1361C8.31248 11.2892 8.52699 11.3746 8.75001 11.3748H18.3776L18.48 11.3687C18.7015 11.3423 18.9045 11.2324 19.0477 11.0614C19.1908 10.8904 19.2632 10.6712 19.2502 10.4485C19.2371 10.2259 19.1395 10.0167 18.9773 9.86355C18.8152 9.71046 18.6007 9.62506 18.3776 9.62481ZM18.3776 4.37481H8.75001L8.64764 4.38094C8.42618 4.40728 8.22313 4.51719 8.07999 4.68821C7.93685 4.85923 7.86441 5.07846 7.87748 5.30109C7.89055 5.52373 7.98814 5.73297 8.15031 5.88607C8.31248 6.03917 8.52699 6.12457 8.75001 6.12481H18.3776L18.48 6.11869C18.7015 6.09235 18.9045 5.98244 19.0477 5.81142C19.1908 5.64039 19.2632 5.42117 19.2502 5.19853C19.2371 4.9759 19.1395 4.76665 18.9773 4.61356C18.8152 4.46046 18.6007 4.37506 18.3776 4.37481ZM5.86863 14.2562C5.70455 14.0922 5.48203 14 5.25001 14C5.01799 14 4.79547 14.0922 4.63139 14.2562L3.50001 15.3876L3.24364 15.1312C3.07861 14.9718 2.85758 14.8836 2.62816 14.8856C2.39874 14.8876 2.17928 14.9796 2.01704 15.1418C1.85481 15.3041 1.76279 15.5235 1.7608 15.753C1.7588 15.9824 1.847 16.2034 2.00638 16.3684L2.88138 17.2434C3.04547 17.4075 3.26799 17.4996 3.50001 17.4996C3.73203 17.4996 3.95455 17.4075 4.11863 17.2434L5.86863 15.4934C6.03267 15.3294 6.12482 15.1068 6.12482 14.8748C6.12482 14.6428 6.03267 14.4203 5.86863 14.2562ZM4.63139 8.56869C4.79641 8.4093 5.01744 8.32111 5.24686 8.3231C5.47628 8.32509 5.69574 8.41711 5.85798 8.57935C6.02021 8.74158 6.11223 8.96104 6.11422 9.19046C6.11622 9.41988 6.02802 9.64091 5.86863 9.80594L4.11863 11.5559C3.95455 11.72 3.73203 11.8121 3.50001 11.8121C3.26799 11.8121 3.04547 11.72 2.88138 11.5559L2.00638 10.6809C1.92281 10.6002 1.85615 10.5037 1.8103 10.3969C1.76444 10.2902 1.7403 10.1753 1.73929 10.0592C1.73828 9.94298 1.76042 9.82776 1.80442 9.72023C1.84841 9.61269 1.91338 9.515 1.99554 9.43284C2.0777 9.35069 2.17539 9.28572 2.28293 9.24172C2.39046 9.19772 2.50568 9.17558 2.62186 9.17659C2.73804 9.1776 2.85286 9.20174 2.95961 9.2476C3.06637 9.29346 3.16292 9.36012 3.24364 9.44369L3.50001 9.70006L4.63139 8.56869Z" fill="#1C1F28"/>
</svg>
