<svg width="20" height="21" viewBox="0 0 20 21" fill="none" xmlns="http://www.w3.org/2000/svg">
<path d="M10.8335 17.1668H5.99766C5.066 17.1668 4.59933 17.1668 4.2435 16.9852C3.92991 16.8254 3.67495 16.5704 3.51516 16.2568C3.3335 15.9002 3.3335 15.4335 3.3335 14.5002V6.50016C3.3335 5.56683 3.3335 5.10016 3.51516 4.7435C3.67516 4.42933 3.92933 4.17516 4.2435 4.01516C4.60016 3.8335 5.06683 3.8335 6.00016 3.8335H14.0002C14.9335 3.8335 15.4002 3.8335 15.756 4.01516C16.0702 4.17516 16.3252 4.42933 16.4852 4.7435C16.6668 5.09933 16.6668 5.566 16.6668 6.49766V11.3335M10.8335 17.1668C11.0718 17.1643 11.2218 17.1552 11.366 17.121C11.536 17.0793 11.6985 17.0127 11.8477 16.921C12.016 16.8177 12.1602 16.6743 12.4477 16.386L15.886 12.9485C16.1743 12.6602 16.3177 12.5152 16.421 12.3477C16.5127 12.1977 16.5793 12.0352 16.621 11.8652C16.6543 11.7218 16.6643 11.5718 16.6668 11.3335M10.8335 17.1668V12.6668C10.8335 12.2002 10.8335 11.9668 10.9243 11.7885C11.0042 11.6317 11.1317 11.5042 11.2885 11.4243C11.4668 11.3335 11.7002 11.3335 12.1668 11.3335H16.6668" stroke="#1C1F28" stroke-width="2" stroke-linecap="round" stroke-linejoin="round"/>
</svg>
