<svg width="18" height="17" viewBox="0 0 18 17" fill="none" xmlns="http://www.w3.org/2000/svg">
<path d="M12.8958 14.875H13.6042V13.1042H15.375V12.3958H13.6042V10.625H12.8958V12.3958H11.125V13.1042H12.8958V14.875ZM13.25 16.2917C12.2701 16.2917 11.435 15.9462 10.7446 15.2554C10.0542 14.5645 9.70881 13.7294 9.70833 12.75C9.70833 11.7701 10.0538 10.935 10.7446 10.2446C11.4355 9.55424 12.2706 9.20881 13.25 9.20833C14.2299 9.20833 15.0652 9.55376 15.7561 10.2446C16.4469 10.9355 16.7921 11.7706 16.7917 12.75C16.7917 13.7299 16.4462 14.5652 15.7554 15.2561C15.0645 15.9469 14.2294 16.2921 13.25 16.2917ZM5.45833 6.375H12.5417V4.95833H5.45833V6.375ZM8.76979 14.875H4.04167C3.65208 14.875 3.31869 14.7364 3.0415 14.4592C2.76431 14.182 2.62547 13.8484 2.625 13.4583V3.54167C2.625 3.15208 2.76383 2.81869 3.0415 2.5415C3.31917 2.26431 3.65256 2.12547 4.04167 2.125H13.9583C14.3479 2.125 14.6815 2.26383 14.9592 2.5415C15.2369 2.81917 15.3755 3.15256 15.375 3.54167V8.2875C15.0326 8.12222 14.6872 7.99826 14.3387 7.91563C13.9902 7.83299 13.6273 7.79167 13.25 7.79167C13.1201 7.79167 12.999 7.7945 12.8866 7.80017C12.7742 7.80583 12.6592 7.82071 12.5417 7.84479V7.79167H5.45833V9.20833H9.79688C9.58437 9.40903 9.39265 9.62743 9.22171 9.86354C9.05076 10.0997 8.90013 10.3535 8.76979 10.625H5.45833V12.0417H8.34479C8.32118 12.1597 8.30654 12.2749 8.30087 12.3873C8.29521 12.4997 8.29214 12.6206 8.29167 12.75C8.29167 13.1396 8.32708 13.5027 8.39792 13.8394C8.46875 14.1761 8.59271 14.5213 8.76979 14.875Z" fill="white"/>
</svg>
