<svg width="15" height="19" viewBox="0 0 15 19" fill="none" xmlns="http://www.w3.org/2000/svg">
<mask id="mask0_969_5924" style="mask-type:luminance" maskUnits="userSpaceOnUse" x="0" y="12" width="15" height="7">
<path fill-rule="evenodd" clip-rule="evenodd" d="M0 12.2388H14.4621V18.9713H0V12.2388Z" fill="white"/>
</mask>
<g mask="url(#mask0_969_5924)">
<path fill-rule="evenodd" clip-rule="evenodd" d="M7.23189 13.6083C3.34153 13.6083 1.36942 14.2766 1.36942 15.5959C1.36942 16.9271 3.34153 17.6018 7.23189 17.6018C11.1213 17.6018 13.0925 16.9335 13.0925 15.6142C13.0925 14.283 11.1213 13.6083 7.23189 13.6083ZM7.23199 18.9713C5.44339 18.9713 0 18.9713 0 15.5959C0 12.5866 4.12774 12.2388 7.23199 12.2388C9.02059 12.2388 14.4622 12.2388 14.4622 15.6142C14.4622 18.6235 10.3353 18.9713 7.23199 18.9713Z" fill="#7B7B7B"/>
</g>
<mask id="mask1_969_5924" style="mask-type:luminance" maskUnits="userSpaceOnUse" x="2" y="0" width="11" height="11">
<path fill-rule="evenodd" clip-rule="evenodd" d="M2.38281 0.82959H12.0791V10.5245H2.38281V0.82959Z" fill="white"/>
</mask>
<g mask="url(#mask1_969_5924)">
<path fill-rule="evenodd" clip-rule="evenodd" d="M7.23184 2.13282C5.27707 2.13282 3.6866 3.72238 3.6866 5.67715C3.68021 7.62552 5.25881 9.21416 7.20536 9.22147L7.23184 9.87336V9.22147C9.18569 9.22147 10.7752 7.631 10.7752 5.67715C10.7752 3.72238 9.18569 2.13282 7.23184 2.13282ZM7.23186 10.5244H7.20265C4.53482 10.5162 2.37371 8.34047 2.38284 5.67447C2.38284 3.0039 4.55764 0.829102 7.23186 0.829102C9.90517 0.829102 12.0791 3.0039 12.0791 5.67721C12.0791 8.35052 9.90517 10.5244 7.23186 10.5244Z" fill="#7B7B7B"/>
</g>
</svg>
