<svg width="25" height="25" viewBox="0 0 25 25" fill="none" xmlns="http://www.w3.org/2000/svg">
<mask id="mask0_300_636" style="mask-type:luminance" maskUnits="userSpaceOnUse" x="3" y="4" width="18" height="18">
<path d="M3.125 4.1665H20.8333V21.8748H3.125V4.1665Z" fill="white"/>
<path d="M14.1521 7.72282L6.65833 15.2166C6.4552 15.4197 6.35416 15.5207 6.28333 15.6437C6.21458 15.7676 6.17916 15.9062 6.11041 16.1853L5.41875 18.9499C5.325 19.3249 5.27812 19.5134 5.38229 19.6176C5.48645 19.7218 5.67395 19.6749 6.05 19.5812L8.81562 18.8895C9.09375 18.8207 9.23229 18.7853 9.3552 18.7155C9.47916 18.6457 9.5802 18.5447 9.78229 18.3416L17.2771 10.8478C17.9719 10.1541 18.3187 9.80615 18.3187 9.3749C18.3187 8.94365 17.9719 8.59574 17.2771 7.90199L17.0979 7.72282C16.4031 7.02907 16.0562 6.68115 15.625 6.68115C15.1937 6.68115 14.8458 7.02907 14.1521 7.72282Z" fill="black"/>
</mask>
<g mask="url(#mask0_300_636)">
<path d="M6.04999 19.581L5.54478 17.5602L5.45416 17.582L5.36562 17.6133L6.04999 19.581ZM6.04999 19.581L6.55624 21.6018L6.64687 21.5789L6.73437 21.5477L6.04999 19.581ZM8.13124 16.6904L15.625 9.19557L12.6792 6.24974L5.18437 13.7435L8.13124 16.6904ZM15.625 9.19557L15.8042 9.37474L18.75 6.42891L18.5708 6.24974L15.625 9.19557ZM15.8042 9.37474L8.31041 16.8685L11.2562 19.8154L18.75 12.3206L15.8042 9.37474ZM4.08853 15.6789L3.39791 18.4435L7.43957 19.4539L8.13124 16.6904L4.08853 15.6789ZM6.55624 21.6018L9.32082 20.9112L8.31041 16.8685L5.54478 17.5602L6.55624 21.6018ZM3.39791 18.4435C3.3677 18.5643 3.28228 18.8852 3.25207 19.1831C3.22082 19.506 3.1927 20.3747 3.90832 21.0904L6.8552 18.1445C7.13228 18.4216 7.29062 18.7497 7.36041 19.0549C7.42291 19.3206 7.40624 19.5237 7.39999 19.5883C7.3927 19.6581 7.38332 19.6914 7.3927 19.6487C7.40103 19.6091 7.41353 19.556 7.43957 19.4539L3.39791 18.4435ZM5.54478 17.5602C5.48038 17.5765 5.41579 17.5921 5.35103 17.607C5.30832 17.6174 5.34062 17.607 5.41145 17.5997C5.47603 17.5935 5.67916 17.5779 5.94478 17.6393C6.24999 17.7091 6.57812 17.8685 6.8552 18.1445L3.90832 21.0904C4.62395 21.807 5.4927 21.7779 5.81666 21.7466C6.11457 21.7174 6.43541 21.632 6.55624 21.6018L5.54478 17.5602ZM8.31041 16.8685L8.24166 16.9362C8.21136 16.9667 8.1808 16.9969 8.14999 17.0268L8.15937 17.0185C8.19013 16.9929 8.22249 16.9692 8.25624 16.9477C8.27963 16.9313 8.30398 16.9163 8.32916 16.9029L10.3812 20.5279C10.8083 20.2872 11.1312 19.9393 11.2562 19.8154L8.31041 16.8685ZM9.31978 20.9102C9.49166 20.8685 9.9552 20.7695 10.3823 20.5289L8.32916 16.9029C8.38927 16.8691 8.45197 16.8402 8.51666 16.8164L8.52707 16.8122C8.50922 16.8178 8.49115 16.8227 8.47291 16.8268L8.40312 16.8456L8.31041 16.8685L9.31978 20.9102ZM15.8052 9.37474C15.9844 9.55391 16.1156 9.68516 16.2239 9.79974C16.3333 9.91432 16.3823 9.9737 16.4031 10.0008C16.4219 10.0258 16.3792 9.97474 16.3312 9.86224C16.2678 9.70755 16.2352 9.54194 16.2354 9.37474H20.4021C20.4021 8.52057 20.0292 7.88516 19.7146 7.47266C19.4364 7.10807 19.0552 6.73307 18.75 6.42891L15.8052 9.37474ZM18.75 12.3206C19.0552 12.0154 19.4364 11.6414 19.7146 11.2768C20.0292 10.8633 20.4021 10.2289 20.4021 9.37474H16.2354C16.2354 9.1862 16.2771 9.01745 16.3302 8.88724C16.3781 8.77474 16.4208 8.7237 16.4021 8.7487C16.3457 8.81862 16.2859 8.88571 16.2229 8.94974C16.1146 9.06432 15.9833 9.19557 15.8042 9.37474L18.75 12.3206ZM15.625 9.19557C15.8042 9.01745 15.9354 8.88516 16.05 8.77682C16.1646 8.66745 16.2239 8.61849 16.251 8.59766C16.276 8.57891 16.225 8.62161 16.1125 8.66953C15.9577 8.73259 15.7921 8.7648 15.625 8.76432V4.59766C14.7708 4.59766 14.1354 4.97057 13.7229 5.28516C13.3583 5.56328 12.9833 5.94453 12.6792 6.24974L15.625 9.19557ZM18.5708 6.24974C18.2656 5.94453 17.8917 5.56328 17.5271 5.28516C17.1135 4.97057 16.4792 4.59766 15.625 4.59766V8.76432C15.4364 8.76432 15.2677 8.72266 15.1375 8.66953C15.025 8.62161 14.9739 8.57891 14.9989 8.59766C15.026 8.61849 15.0854 8.66745 15.2 8.77682C15.3146 8.88516 15.4458 9.01641 15.625 9.19557L18.5708 6.24974ZM5.18437 13.7435C5.05937 13.8685 4.71249 14.1914 4.47082 14.6185L8.09687 16.6706C8.06287 16.7301 8.0242 16.7869 7.98124 16.8404C8.00795 16.8119 8.03539 16.7851 8.06353 16.7581L8.13124 16.6893L5.18437 13.7435ZM8.13124 16.6904C8.14846 16.6209 8.16582 16.5514 8.18332 16.482L8.18749 16.4716C8.1862 16.4758 8.18481 16.48 8.18332 16.4841C8.17011 16.5219 8.15445 16.5588 8.13645 16.5945C8.12412 16.6203 8.11092 16.6457 8.09687 16.6706L4.47187 14.6185C4.2302 15.0435 4.13124 15.5081 4.08853 15.6789L8.13124 16.6904Z" fill="#1C1F28"/>
</g>
<path d="M13.0209 7.81234L16.1459 5.729L19.2709 8.854L17.1875 11.979L13.0209 7.81234Z" fill="#1C1F28"/>
</svg>
